<svg width="20" height="20" viewBox="0 0 20 20" fill="none" xmlns="http://www.w3.org/2000/svg">
<path fill-rule="evenodd" clip-rule="evenodd" d="M9.62512 1.26599H14.9275C17.1366 1.26599 18.9275 3.05685 18.9275 5.26599V10.5619C18.9275 12.7711 17.1366 14.5619 14.9275 14.5619H9.62513C7.41599 14.5619 5.62512 12.7711 5.62512 10.5619V5.26599C5.62512 3.05685 7.41598 1.26599 9.62512 1.26599ZM4.62512 5.26599C4.62512 2.50457 6.8637 0.265991 9.62512 0.265991H14.9275C17.6889 0.265991 19.9275 2.50457 19.9275 5.26599V10.5619C19.9275 13.3234 17.6889 15.5619 14.9275 15.5619H13.6965C13.5652 17.6843 11.8194 19.746 9.69534 19.746H4.49963C2.29049 19.746 0.499634 17.9551 0.499634 15.746V10.3811C0.499634 8.17197 2.29049 6.3811 4.49963 6.3811H4.62512V5.26599ZM4.62512 7.31851C3.00052 7.36552 1.49963 8.75261 1.49963 10.3811V15.746C1.49963 17.4028 2.84278 18.746 4.49963 18.746H9.69534C11.321 18.746 12.7986 17.1857 12.8536 15.5619H9.62513C6.8637 15.5619 4.62512 13.3234 4.62512 10.5619V7.31851Z" fill="black"/>
</svg>
