<svg width="21" height="21" viewBox="0 0 21 21" fill="none" xmlns="http://www.w3.org/2000/svg">
<path fill-rule="evenodd" clip-rule="evenodd" d="M0.628906 10.325C0.628906 4.80498 5.09891 0.324982 10.6289 0.324982C16.1489 0.324982 20.6289 4.80498 20.6289 10.325C20.6289 15.855 16.1489 20.325 10.6289 20.325C5.09891 20.325 0.628906 15.855 0.628906 10.325ZM12.8589 12.155L14.4789 7.03498C14.5889 6.68498 14.2689 6.35498 13.9189 6.46498L8.79891 8.06498C8.58891 8.13498 8.41891 8.29498 8.35891 8.50498L6.75891 13.635C6.64891 13.975 6.97891 14.305 7.31891 14.195L12.4189 12.595C12.6289 12.535 12.7989 12.365 12.8589 12.155Z" fill="#000"/>
</svg>
