<svg width="18" height="21" viewBox="0 0 18 21" fill="none" xmlns="http://www.w3.org/2000/svg">
<path fill-rule="evenodd" clip-rule="evenodd" d="M0.481689 8.64274C0.481689 4.04287 4.32557 0.324982 8.97513 0.324982C13.6378 0.324982 17.4817 4.04287 17.4817 8.64274C17.4817 10.9607 16.6387 13.1126 15.2512 14.9366C13.7205 16.9485 11.8338 18.7014 9.71023 20.0774C9.2242 20.3954 8.78556 20.4194 8.25214 20.0774C6.11642 18.7014 4.22978 16.9485 2.71219 14.9366C1.32367 13.1126 0.481689 10.9607 0.481689 8.64274ZM6.17592 8.90173C6.17592 10.4427 7.43335 11.6547 8.97513 11.6547C10.5179 11.6547 11.7875 10.4427 11.7875 8.90173C11.7875 7.37278 10.5179 6.10181 8.97513 6.10181C7.43335 6.10181 6.17592 7.37278 6.17592 8.90173Z" fill="#000"/>
</svg>
