<svg width="21" height="19" viewBox="0 0 21 19" fill="none" xmlns="http://www.w3.org/2000/svg">
<path fill-rule="evenodd" clip-rule="evenodd" d="M14.971 0.120331C16.312 0.120331 17.602 0.650331 18.551 1.60133C19.501 2.55033 20.032 3.83033 20.032 5.17033V13.0703C20.032 15.8603 17.762 18.1203 14.971 18.1203H5.09198C2.30098 18.1203 0.0319824 15.8603 0.0319824 13.0703V5.17033C0.0319824 2.38033 2.29098 0.120331 5.09198 0.120331H14.971ZM16.562 6.66033L16.642 6.58033C16.881 6.29033 16.881 5.87033 16.631 5.58033C16.492 5.43133 16.301 5.34033 16.102 5.32033C15.892 5.30933 15.692 5.38033 15.541 5.52033L11.032 9.12033C10.452 9.60133 9.62098 9.60133 9.03198 9.12033L4.53198 5.52033C4.22098 5.29033 3.79098 5.32033 3.53198 5.59033C3.26198 5.86033 3.23198 6.29033 3.46098 6.59033L3.59198 6.72033L8.14198 10.2703C8.70198 10.7103 9.38098 10.9503 10.092 10.9503C10.801 10.9503 11.492 10.7103 12.051 10.2703L16.562 6.66033Z" fill="#1A150A"/>
</svg>
