<svg width="21" height="21" viewBox="0 0 21 21" fill="none" xmlns="http://www.w3.org/2000/svg">
<path fill-rule="evenodd" clip-rule="evenodd" d="M16.3753 2.93763H14.3944C14.2043 1.46928 12.9736 0.324982 11.4729 0.324982H8.89161C7.39086 0.324982 6.16024 1.46928 5.97015 2.93763H3.99916C1.89811 2.93763 0.187256 4.66926 0.187256 6.79584C0.187256 6.79584 0.237281 8.45659 0.267296 8.97304C0.267296 9.0743 0.317321 9.16544 0.397361 9.21608L1.35784 9.88443C3.00867 10.9791 4.93863 11.7619 6.97765 12.1528C7.11072 12.1781 8.01107 12.347 8.01107 12.347C8.01107 12.347 8.98966 12.5991 10.1823 12.5991C11.3829 12.5991 12.3739 12.347 12.3739 12.347C12.3739 12.347 13.2358 12.1882 13.3698 12.1619C15.4259 11.772 17.3558 10.9882 19.0167 9.8743C19.0567 9.85405 19.4969 9.56038 19.9782 9.20494C20.0572 9.1462 20.1052 9.04899 20.1072 8.94975C20.1272 7.69608 20.1873 6.79584 20.1873 6.79584C20.1873 4.66926 18.4764 2.93763 16.3753 2.93763Z" fill="#000"/>
<path fill-rule="evenodd" clip-rule="evenodd" d="M19.8471 11.1402C19.8271 11.1504 19.8071 11.1605 19.8071 11.1605C17.7861 12.5174 15.3549 13.4187 12.8036 13.7934C12.4434 13.844 12.1324 13.9425 11.6953 13.9855C11.115 14.0425 11.0438 14.0533 10.1934 14.0533H10.1834H10.1634C9.31298 14.0533 9.22991 14.0488 8.63156 13.9855C8.21298 13.9412 7.93118 13.844 7.571 13.7934C5.01972 13.4187 2.5885 12.5174 0.567494 11.1605C0.557489 11.1504 0.457439 11.0896 0.377399 11.1402C0.287354 11.1909 0.287354 11.3124 0.287354 11.3124L0.357389 16.4769C0.357389 18.6035 2.05824 20.325 4.15929 20.325H16.2053C18.3064 20.325 20.0072 18.6035 20.0072 16.4769L20.0873 11.3124C20.0873 11.3124 20.0873 11.1909 19.9972 11.1402C19.9472 11.1099 19.8872 11.12 19.8471 11.1402Z" fill="#000"/>
</svg>
